<svg xmlns="http://www.w3.org/2000/svg" width="600" height="720" viewBox="0 0 600 720"><rect x="0" y="0" width="600" height="720" rx="0" fill="#b6c6bd"/><rect x="0" y="375" width="600" height="345" rx="0" fill="#92998a"/><rect x="20" y="60" width="210" height="310" rx="0" fill="#ddd8c6"/><rect x="258" y="0" width="220" height="380" rx="0" fill="#c0b49a"/><rect x="45" y="85" width="52" height="65" rx="3" fill="#607c79"/><rect x="45" y="185" width="52" height="65" rx="3" fill="#607c79"/><rect x="130" y="85" width="52" height="65" rx="3" fill="#607c79"/><rect x="130" y="185" width="52" height="65" rx="3" fill="#607c79"/><rect x="280" y="85" width="52" height="65" rx="3" fill="#607c79"/><rect x="280" y="185" width="52" height="65" rx="3" fill="#607c79"/><rect x="370" y="85" width="52" height="65" rx="3" fill="#607c79"/><rect x="370" y="185" width="52" height="65" rx="3" fill="#607c79"/><rect x="485" y="0" width="115" height="430" rx="0" fill="#788976"/><rect x="0" y="530" width="600" height="190" rx="0" fill="#7c827b"/><path d="M0 620 L600 590" stroke="#d7d5bd" stroke-width="7"/><g transform="translate(110 256) scale(0.9)"><rect x="-35" y="105" width="140" height="250" rx="45" fill="#374f53"/><rect x="-27" y="310" width="55" height="180" rx="15" fill="#292f35"/><rect x="45" y="310" width="55" height="180" rx="15" fill="#292f35"/><rect x="-56" y="126" width="30" height="190" rx="14" fill="#ce9a7e"/><rect x="96" y="126" width="30" height="190" rx="14" fill="#ce9a7e"/><rect x="13" y="84" width="40" height="50" rx="13" fill="#ba846a"/><rect x="-5" y="0" width="80" height="101" rx="35" fill="#ddb195"/><path d="M-8 47 Q-24 -22 39 -13 Q88 -14 78 42 L59 15 Q27 40 -8 47" fill="#342f30"/><rect x="10" y="49" width="7" height="5" rx="0" fill="#343331"/><rect x="48" y="49" width="7" height="5" rx="0" fill="#343331"/><path d="M24 78 Q34 86 46 78" fill="none" stroke="#a26854" stroke-width="3"/></g><rect x="255" y="379" width="330" height="181" rx="34" fill="#e0cc97"/><path d="M293 380 L329 299 L504 299 L549 380Z" fill="#c6b57f"/><path d="M314 374 L345 312 L487 312 L525 374Z" fill="#546e6d"/><rect x="274" y="492" width="55" height="25" rx="6" fill="#ede1b9"/><rect x="520" y="492" width="45" height="25" rx="6" fill="#ede1b9"/><rect x="337" y="494" width="121" height="40" rx="3" fill="#e8e8d4"/><text x="343" y="520" font-size="18" fill="#343e39" font-family="sans-serif">架空 00-00</text><circle cx="300" cy="568" r="37" fill="#343b3a"/><circle cx="529" cy="568" r="37" fill="#343b3a"/><rect width="600" height="720" fill="#deb879" opacity=".06"/><text x="16" y="704" font-size="10" fill="#eee9da" font-family="sans-serif">FICTIONAL SCENE / ALL DATA IS DUMMY</text></svg>